<svg width="216" height="34" viewBox="0 0 216 34" fill="none" xmlns="http://www.w3.org/2000/svg">
<g clip-path="url(#clip0_2717_2139)">
<mask id="mask0_2717_2139" style="mask-type:luminance" maskUnits="userSpaceOnUse" x="0" y="0" width="216" height="34">
<path d="M216 0H0V34H216V0Z" fill="white"/>
</mask>
<g mask="url(#mask0_2717_2139)">
<mask id="mask1_2717_2139" style="mask-type:luminance" maskUnits="userSpaceOnUse" x="0" y="0" width="216" height="34">
<path d="M216 0H0V34H216V0Z" fill="white"/>
</mask>
<g mask="url(#mask1_2717_2139)">
<mask id="mask2_2717_2139" style="mask-type:luminance" maskUnits="userSpaceOnUse" x="0" y="0" width="216" height="34">
<path d="M216 0H0V34H216V0Z" fill="white"/>
</mask>
<g mask="url(#mask2_2717_2139)">
<mask id="mask3_2717_2139" style="mask-type:luminance" maskUnits="userSpaceOnUse" x="0" y="0" width="216" height="34">
<path d="M216 0H0V34H216V0Z" fill="white"/>
</mask>
<g mask="url(#mask3_2717_2139)">
<path d="M42.6841 11.59C43.7133 10.4361 44.8386 9.59142 46.0601 9.05604C47.2816 8.52066 48.5888 8.25298 49.9818 8.25298C52.4144 8.25298 54.4935 9.1262 56.2192 10.8727C57.9449 12.6192 58.8077 14.7243 58.8077 17.188C58.8077 19.6934 57.9501 21.8245 56.2348 23.5814C54.5195 25.3382 52.456 26.2166 50.0442 26.2166C48.6824 26.2166 47.4297 25.9386 46.2862 25.3824C45.1427 24.8262 44.1083 23.9816 43.1831 22.8485V32.3917H41V16.1901C41.1871 14.6827 41.7485 13.1493 42.6841 11.59ZM49.7947 10.3581C47.9027 10.3581 46.3018 11.0234 44.9919 12.3541C43.6821 13.6847 43.0271 15.3428 43.0271 17.3284C43.0271 18.6174 43.3182 19.7843 43.9004 20.8291C44.4825 21.8739 45.3142 22.7003 46.3953 23.3085C47.4765 23.9166 48.62 24.2207 49.8259 24.2207C51.011 24.2207 52.1259 23.9166 53.1707 23.3085C54.2155 22.7003 55.0471 21.8427 55.6657 20.7355C56.2842 19.6284 56.5935 18.4719 56.5935 17.266C56.5935 16.0393 56.2868 14.8854 55.6734 13.8043C55.0601 12.7231 54.2363 11.8785 53.2019 11.2703C52.1675 10.6622 51.0318 10.3581 49.7947 10.3581ZM71.2981 8.19061C73.9282 8.19061 76.1113 9.1418 77.8474 11.0442C79.4171 12.7907 80.202 14.8542 80.202 17.2348C80.202 19.6154 79.3703 21.6971 77.707 23.48C76.0437 25.2629 73.9074 26.1543 71.2981 26.1543C68.6784 26.1543 66.5395 25.2629 64.8814 23.48C63.2233 21.6971 62.3942 19.6154 62.3942 17.2348C62.3942 14.8646 63.1791 12.8063 64.7488 11.0598C66.4849 9.14699 68.668 8.19061 71.2981 8.19061ZM71.2981 10.3425C69.4788 10.3425 67.9143 11.0182 66.6045 12.3697C65.2946 13.7211 64.6397 15.3532 64.6397 17.266C64.6397 18.5031 64.9386 19.6596 65.5363 20.7355C66.1341 21.8115 66.9423 22.6379 67.9611 23.2149C68.9799 23.7919 70.0922 24.0803 71.2981 24.0803C72.5248 24.0803 73.6449 23.7919 74.6585 23.2149C75.6721 22.6379 76.4751 21.8115 77.0677 20.7355C77.6602 19.6596 77.9565 18.5031 77.9565 17.266C77.9565 15.3532 77.3016 13.7211 75.9917 12.3697C74.6819 11.0182 73.1173 10.3425 71.2981 10.3425ZM92.8483 10.4984L91.4449 11.9642C90.2597 10.8207 89.111 10.2489 87.9987 10.2489C87.2814 10.2489 86.6681 10.4828 86.1587 10.9506C85.6493 11.4185 85.3946 11.9746 85.3946 12.6191C85.3946 13.1597 85.6077 13.6795 86.0339 14.1785C86.4497 14.7087 87.3282 15.3168 88.6692 16.0029C90.3117 16.845 91.4241 17.661 92.0062 18.4511C92.578 19.2516 92.8639 20.1508 92.8639 21.1488C92.8639 22.5418 92.3727 23.7243 91.3903 24.6963C90.4079 25.6683 89.1786 26.1543 87.7024 26.1543C86.7148 26.1543 85.7714 25.9438 84.8722 25.5227C83.973 25.1017 83.2323 24.5118 82.6501 23.7529L84.038 22.1779C85.1607 23.4462 86.351 24.0803 87.6089 24.0803C88.4821 24.0803 89.228 23.7971 89.8465 23.2305C90.4651 22.6639 90.7743 22.0012 90.7743 21.2423C90.7743 20.6082 90.5716 20.0468 90.1662 19.5582C89.7608 19.0696 88.8407 18.4563 87.4061 17.7182C85.8572 16.9385 84.8072 16.1537 84.2563 15.3636C83.6949 14.5943 83.4142 13.7107 83.4142 12.7127C83.4142 11.4132 83.8586 10.3347 84.7475 9.47707C85.6363 8.61942 86.7512 8.19061 88.0923 8.19061C89.662 8.19061 91.2473 8.95987 92.8483 10.4984ZM97.4951 2C97.9941 2 98.4229 2.17672 98.7816 2.53018C99.1402 2.88363 99.3195 3.30985 99.3195 3.80884C99.3195 4.30784 99.1402 4.73665 98.7816 5.0953C98.4229 5.45395 97.9941 5.63328 97.4951 5.63328C96.9961 5.63328 96.5699 5.45395 96.2165 5.0953C95.863 4.73665 95.6863 4.30784 95.6863 3.80884C95.6863 3.30985 95.863 2.88363 96.2165 2.53018C96.5699 2.17672 96.9961 2 97.4951 2ZM96.4036 9.03265H98.6022V26.1387H96.4036V9.03265ZM109.315 23.7217C109.596 24.5014 109.824 25.1095 110.001 25.5461C108.858 25.9827 107.839 26.1855 106.945 26.1543C105.261 26.0607 103.93 25.1875 102.953 23.5346C102.36 22.495 102.074 21.3515 102.095 20.104V2.34306H104.309V10.6076H108.379V12.4944H104.325V19.7298C104.263 21.5178 104.866 22.8952 106.134 23.862C107.173 24.3506 108.234 24.3039 109.315 23.7217ZM112.668 26.1075V16.2524C112.834 15.2233 113.073 14.3864 113.385 13.7419C114.113 11.9538 115.09 10.644 116.316 9.81232C117.543 8.98067 118.562 8.56485 119.373 8.56485C119.976 8.56485 120.62 8.76236 121.306 9.1574L120.168 10.9974C119.201 10.644 118.242 10.9299 117.291 11.8551C116.34 12.7803 115.682 13.7887 115.318 14.8802C115.048 15.847 114.913 17.661 114.913 20.3223V26.1075H112.668ZM130.678 8.19061C133.308 8.19061 135.491 9.1418 137.227 11.0442C138.797 12.7907 139.582 14.8542 139.582 17.2348C139.582 19.6154 138.75 21.6971 137.087 23.48C135.424 25.2629 133.287 26.1543 130.678 26.1543C128.058 26.1543 125.919 25.2629 124.261 23.48C122.603 21.6971 121.774 19.6154 121.774 17.2348C121.774 14.8646 122.559 12.8063 124.129 11.0598C125.865 9.14699 128.048 8.19061 130.678 8.19061ZM130.678 10.3425C128.859 10.3425 127.294 11.0182 125.984 12.3697C124.675 13.7211 124.02 15.3532 124.02 17.266C124.02 18.5031 124.318 19.6596 124.916 20.7355C125.514 21.8115 126.322 22.6379 127.341 23.2149C128.36 23.7919 129.472 24.0803 130.678 24.0803C131.905 24.0803 133.025 23.7919 134.038 23.2149C135.052 22.6379 135.855 21.8115 136.448 20.7355C137.04 19.6596 137.336 18.5031 137.336 17.266C137.336 15.3532 136.682 13.7211 135.372 12.3697C134.062 11.0182 132.497 10.3425 130.678 10.3425ZM143.621 19.6518L143.589 17.8274C143.558 16.9333 143.595 16.1745 143.699 15.5507C143.927 13.5859 144.426 12.1462 145.196 11.2313C145.944 10.4309 146.708 9.81233 147.488 9.37571C148.777 8.82474 150.248 8.56485 151.901 8.59604C153.19 8.59604 154.383 8.9209 155.479 9.57063C156.576 10.2204 157.358 11.0936 157.826 12.1903C158.294 13.2871 158.528 15.0049 158.528 17.344V26.1387H156.345V17.9833C156.345 16.0081 156.262 14.6879 156.095 14.0226C155.835 12.8894 155.321 12.0864 154.552 11.6134C153.782 11.1404 152.644 10.9039 151.137 10.9039C149.806 10.9039 148.621 11.2885 147.581 12.0578C146.542 12.8271 146.058 13.877 146.131 15.2077C145.934 16.0601 145.835 17.6142 145.835 19.8701V26.1387H143.621V19.6518ZM162.348 2.98239H165.046L170.582 11.9954L176.164 2.98239H178.846L171.954 14.1785L179.283 26.1075H176.601L170.582 16.4084L164.547 26.1075H161.849L169.225 14.1785L162.348 2.98239ZM185.193 22.2715C185.723 22.2715 186.178 22.4612 186.557 22.8407C186.937 23.2201 187.126 23.6801 187.126 24.2207C187.126 24.7509 186.937 25.2057 186.557 25.5851C186.178 25.9646 185.723 26.1543 185.193 26.1543C184.652 26.1543 184.195 25.9646 183.821 25.5851C183.446 25.2057 183.259 24.7509 183.259 24.2207C183.259 23.6801 183.446 23.2201 183.821 22.8407C184.195 22.4612 184.652 22.2715 185.193 22.2715ZM192.428 2C192.927 2 193.356 2.17672 193.715 2.53018C194.073 2.88363 194.253 3.30985 194.253 3.80884C194.253 4.30784 194.073 4.73665 193.715 5.0953C193.356 5.45395 192.927 5.63328 192.428 5.63328C191.929 5.63328 191.503 5.45395 191.149 5.0953C190.796 4.73665 190.619 4.30784 190.619 3.80884C190.619 3.30985 190.796 2.88363 191.149 2.53018C191.503 2.17672 191.929 2 192.428 2ZM191.337 9.03265H193.535V26.1387H191.337V9.03265ZM206.166 8.19061C208.796 8.19061 210.979 9.1418 212.715 11.0442C214.285 12.7907 215.07 14.8542 215.07 17.2348C215.07 19.6154 214.238 21.6971 212.575 23.48C210.912 25.2629 208.775 26.1543 206.166 26.1543C203.546 26.1543 201.407 25.2629 199.749 23.48C198.091 21.6971 197.262 19.6154 197.262 17.2348C197.262 14.8646 198.047 12.8063 199.617 11.0598C201.353 9.14699 203.536 8.19061 206.166 8.19061ZM206.166 10.3425C204.347 10.3425 202.782 11.0182 201.472 12.3697C200.162 13.7211 199.508 15.3532 199.508 17.266C199.508 18.5031 199.806 19.6596 200.404 20.7355C201.002 21.8115 201.81 22.6379 202.829 23.2149C203.848 23.7919 204.96 24.0803 206.166 24.0803C207.393 24.0803 208.513 23.7919 209.526 23.2149C210.54 22.6379 211.343 21.8115 211.936 20.7355C212.528 19.6596 212.824 18.5031 212.824 17.266C212.824 15.3532 212.169 13.7211 210.86 12.3697C209.55 11.0182 207.985 10.3425 206.166 10.3425Z" fill="#1820EE"/>
<path d="M27.0505 17.0003C30.2246 13.6093 31.5878 10.2964 30.3036 8.18941C29.5265 6.91386 27.9211 6.24011 25.6616 6.24011C24.3991 6.24011 22.9644 6.45217 21.4301 6.84395C20.144 2.66602 18.0671 0 15.6806 0C13.2941 0 11.2172 2.66598 9.93106 6.84391C8.39683 6.45217 6.96231 6.24011 5.69989 6.24011C3.44049 6.24011 1.83507 6.91386 1.05793 8.18941C0.00771743 9.91252 0.646057 12.4429 2.85572 15.3156C3.28755 15.8769 3.78127 16.4402 4.30946 17.0018C1.13655 20.3921 -0.226051 23.704 1.05793 25.8106C1.83507 27.0854 3.44049 27.7599 5.70024 27.7599C6.96244 27.7599 8.39709 27.5479 9.93111 27.1562C11.2172 31.3341 13.2941 34 15.6806 34C18.0671 34 20.144 31.334 21.4301 27.156C22.9644 27.5478 24.3991 27.7599 25.6616 27.7599C27.9211 27.7599 29.5265 27.0861 30.304 25.8106C31.5877 23.7037 30.2244 20.3911 27.0505 17.0003ZM25.6616 7.65678C26.8712 7.65678 28.4467 7.87606 29.085 8.92403C29.9306 10.3116 28.8064 13.0123 26.0443 15.9819C25.0397 15.0151 23.8899 14.0531 22.6235 13.118C22.4573 11.3574 22.1809 9.70794 21.8097 8.21384C23.2087 7.85963 24.5184 7.65678 25.6616 7.65678ZM18.6347 21.8463C17.6518 22.4384 16.6632 22.9678 15.6807 23.4545C14.6982 22.9678 13.7097 22.4384 12.7268 21.8463C11.8147 21.2968 10.9379 20.7216 10.1044 20.1283C10.0261 19.1272 9.98111 18.0848 9.98111 17C9.98111 15.9171 10.026 14.8767 10.1041 13.8772C10.9234 13.2926 11.7953 12.7151 12.7268 12.1537C13.7097 11.5616 14.6982 11.0322 15.6807 10.5455C16.6632 11.0322 17.6516 11.5616 18.6343 12.1537C19.5659 12.7151 20.4377 13.2926 21.2571 13.8771C21.3352 14.8766 21.3801 15.9171 21.3801 17C21.3801 18.083 21.3352 19.1237 21.2571 20.1233C20.4378 20.7077 19.5661 21.2851 18.6347 21.8463ZM21.0657 21.9792C20.9062 23.206 20.6876 24.342 20.4282 25.3908C19.4218 25.0731 18.3819 24.6812 17.3186 24.2171C18.0047 23.854 18.691 23.469 19.3729 23.0582C19.9565 22.7066 20.5178 22.3452 21.0657 21.9792ZM14.0429 24.2171C12.9794 24.6813 11.9395 25.0732 10.933 25.391C10.6735 24.3416 10.4547 23.2048 10.2952 21.9771C10.8468 22.3457 11.4084 22.7086 11.9887 23.0582C12.6706 23.469 13.3568 23.8541 14.0429 24.2171ZM8.60455 18.9972C7.78019 18.3455 7.01484 17.6792 6.31223 17.0056C7.00088 16.3416 7.76289 15.6714 8.60451 15.0037C8.57377 15.6579 8.55624 16.3231 8.55624 17C8.55624 17.6773 8.57377 18.3427 8.60455 18.9972ZM10.2955 12.0212C10.455 10.7942 10.6736 9.658 10.933 8.60908C11.9396 8.9268 12.9794 9.31871 14.0429 9.7829C13.3567 10.1459 12.6706 10.531 11.9887 10.9418C11.4049 11.2936 10.8435 11.655 10.2955 12.0212ZM17.3186 9.7829C18.3819 9.31875 19.4218 8.92688 20.4282 8.60921C20.6876 9.65805 20.9063 10.7942 21.0657 12.021C20.5178 11.6549 19.9565 11.2935 19.3729 10.9418C18.691 10.531 18.0047 10.146 17.3186 9.7829ZM22.7567 15.0037C23.5961 15.6697 24.3565 16.3381 25.0438 17.0003C24.3565 17.6625 23.5961 18.331 22.7566 18.9969C22.7874 18.3425 22.8049 17.6772 22.8049 17C22.8049 16.323 22.7874 15.6579 22.7567 15.0037ZM15.6806 1.41667C17.252 1.41667 18.9238 3.60241 20.0486 7.2356C18.6414 7.67714 17.1703 8.25629 15.6807 8.96022C14.191 8.25625 12.7199 7.6771 11.3126 7.23551C12.4374 3.60237 14.1092 1.41667 15.6806 1.41667ZM3.98768 14.4544C2.18537 12.1122 1.56165 10.0965 2.27617 8.92403C2.91486 7.87606 4.49035 7.65678 5.69989 7.65678C6.84308 7.65678 8.15272 7.85963 9.55154 8.21375C9.18032 9.70794 8.90398 11.3575 8.73766 13.1181C7.46781 14.0559 6.31549 15.0207 5.3088 15.9901C4.82996 15.4779 4.38038 14.965 3.98768 14.4544ZM5.70059 26.3432C4.49105 26.3432 2.91486 26.1232 2.27617 25.076C1.43072 23.6887 2.55516 20.9882 5.31737 18.0184C6.33767 18.9966 7.4865 19.9576 8.73757 20.8809C8.90385 22.6419 9.18028 24.2918 9.55154 25.7863C8.15293 26.1404 6.84356 26.3432 5.70059 26.3432ZM15.6806 32.5833C14.1092 32.5833 12.4374 30.3976 11.3126 26.7645C12.7199 26.3229 14.1911 25.7438 15.6808 25.0398C17.1703 25.7437 18.6414 26.3229 20.0486 26.7644C18.9238 30.3976 17.252 32.5833 15.6806 32.5833ZM29.0854 25.076C28.4467 26.1239 26.8712 26.3432 25.6616 26.3432C24.5184 26.3432 23.2087 26.1404 21.8097 25.7862C22.1809 24.2922 22.4572 22.6428 22.6235 20.8823C23.8898 19.9473 25.0395 18.9854 26.0442 18.0187C28.8063 20.9884 29.9308 23.6888 29.0854 25.076Z" fill="#1820EE"/>
<path d="M15.683 13.5195C13.7566 13.5195 12.1895 15.0775 12.1895 16.9929C12.1895 18.9082 13.7566 20.4663 15.683 20.4663C17.5995 20.4663 19.1765 18.9082 19.1765 16.9929C19.1765 15.0775 17.5995 13.5195 15.683 13.5195Z" fill="#1820EE"/>
</g>
</g>
</g>
</g>
</g>
<defs>
<clipPath id="clip0_2717_2139">
<rect width="216" height="34" fill="white"/>
</clipPath>
</defs>
</svg>
